<svg width="42" height="42" viewBox="0 0 42 42" fill="none" xmlns="http://www.w3.org/2000/svg">
<mask id="mask0_6_159" style="mask-type:alpha" maskUnits="userSpaceOnUse" x="0" y="0" width="42" height="42">
<rect width="42" height="42" fill="#D9D9D9"/>
</mask>
<g mask="url(#mask0_6_159)">
<path d="M21 21C19.075 21 17.4271 20.3146 16.0563 18.9438C14.6854 17.5729 14 15.925 14 14C14 12.075 14.6854 10.4271 16.0563 9.05625C17.4271 7.68542 19.075 7 21 7C22.925 7 24.5729 7.68542 25.9437 9.05625C27.3146 10.4271 28 12.075 28 14C28 15.925 27.3146 17.5729 25.9437 18.9438C24.5729 20.3146 22.925 21 21 21ZM7 35V30.1C7 29.1083 7.25521 28.1969 7.76562 27.3656C8.27604 26.5344 8.95417 25.9 9.8 25.4625C11.6083 24.5583 13.4458 23.8802 15.3125 23.4281C17.1792 22.976 19.075 22.75 21 22.75C22.925 22.75 24.8208 22.976 26.6875 23.4281C28.5542 23.8802 30.3917 24.5583 32.2 25.4625C33.0458 25.9 33.724 26.5344 34.2344 27.3656C34.7448 28.1969 35 29.1083 35 30.1V35H7ZM10.5 31.5H31.5V30.1C31.5 29.7792 31.4198 29.4875 31.2594 29.225C31.099 28.9625 30.8875 28.7583 30.625 28.6125C29.05 27.825 27.4604 27.2344 25.8563 26.8406C24.2521 26.4469 22.6333 26.25 21 26.25C19.3667 26.25 17.7479 26.4469 16.1437 26.8406C14.5396 27.2344 12.95 27.825 11.375 28.6125C11.1125 28.7583 10.901 28.9625 10.7406 29.225C10.5802 29.4875 10.5 29.7792 10.5 30.1V31.5ZM21 17.5C21.9625 17.5 22.7865 17.1573 23.4719 16.4719C24.1573 15.7865 24.5 14.9625 24.5 14C24.5 13.0375 24.1573 12.2135 23.4719 11.5281C22.7865 10.8427 21.9625 10.5 21 10.5C20.0375 10.5 19.2135 10.8427 18.5281 11.5281C17.8427 12.2135 17.5 13.0375 17.5 14C17.5 14.9625 17.8427 15.7865 18.5281 16.4719C19.2135 17.1573 20.0375 17.5 21 17.5Z" fill="white"/>
</g>
</svg>
