<svg width="24" height="24" viewBox="0 0 24 24" fill="none" xmlns="http://www.w3.org/2000/svg">
<mask id="mask0_3_107" style="mask-type:alpha" maskUnits="userSpaceOnUse" x="0" y="0" width="24" height="24">
<rect width="24" height="24" fill="#D9D9D9"/>
</mask>
<g mask="url(#mask0_3_107)">
<path d="M6.25003 13.75H17.75V12.25H6.25003V13.75ZM6.25003 10.75H17.75V9.25002H6.25003V10.75ZM6.25003 7.74997H17.75V6.25002H6.25003V7.74997ZM21.5 21.0384L17.9615 17.5H4.30773C3.8026 17.5 3.37503 17.325 3.02503 16.975C2.67503 16.625 2.50003 16.1974 2.50003 15.6923V4.30772C2.50003 3.80258 2.67503 3.37502 3.02503 3.02502C3.37503 2.67502 3.8026 2.50002 4.30773 2.50002H19.6923C20.1974 2.50002 20.625 2.67502 20.975 3.02502C21.325 3.37502 21.5 3.80258 21.5 4.30772V21.0384ZM4.30773 16H18.6L20 17.3846V4.30772C20 4.23078 19.968 4.16026 19.9039 4.09614C19.8397 4.03204 19.7692 3.99999 19.6923 3.99999H4.30773C4.2308 3.99999 4.16027 4.03204 4.09616 4.09614C4.03206 4.16026 4.00001 4.23078 4.00001 4.30772V15.6923C4.00001 15.7692 4.03206 15.8397 4.09616 15.9038C4.16027 15.9679 4.2308 16 4.30773 16Z" fill="white"/>
</g>
</svg>
