<svg width="50" height="50" viewBox="0 0 50 50" fill="none" xmlns="http://www.w3.org/2000/svg">
<path d="M25.0039 3.125C12.9395 3.125 3.125 12.9398 3.125 25.0039C3.125 37.0684 12.9395 46.8836 25.0039 46.8836C37.0676 46.8836 46.8828 37.0684 46.8828 25.0039C46.8828 12.9398 37.0676 3.125 25.0039 3.125ZM31.1875 16.9367C31.1875 17.0403 31.1463 17.1397 31.0731 17.2129C30.9998 17.2862 30.9005 17.3273 30.7969 17.3273L28.3098 17.3289C26.6687 17.3289 26.3688 17.968 26.3688 19.2266V21.8375H30.6344C30.7465 21.8375 30.8535 21.8859 30.9273 21.9703C31.0012 22.0547 31.0355 22.1668 31.0219 22.2781L30.4145 26.9785C30.4023 27.0727 30.3563 27.1592 30.2849 27.2219C30.2136 27.2846 30.1219 27.3192 30.027 27.3191H26.3688V38.9906C26.3688 39.0942 26.3276 39.1936 26.2543 39.2668C26.1811 39.3401 26.0817 39.3813 25.9781 39.3813H21.125C21.0214 39.3813 20.922 39.3401 20.8488 39.2668C20.7755 39.1936 20.7344 39.0942 20.7344 38.9906V27.3191H17.0645C16.9609 27.3191 16.8615 27.278 16.7882 27.2047C16.715 27.1315 16.6738 27.0321 16.6738 26.9285V22.2281C16.6738 22.1245 16.715 22.0252 16.7882 21.9519C16.8615 21.8787 16.9609 21.8375 17.0645 21.8375H20.7344V18.7613C20.7344 14.6871 23.2 12.1566 27.1699 12.1566C28.8766 12.1566 30.3848 12.2836 30.848 12.3449C30.9419 12.3573 31.0281 12.4034 31.0906 12.4746C31.153 12.5458 31.1875 12.6373 31.1875 12.732V16.9367Z" fill="white"/>
</svg>
