<svg width="50" height="50" viewBox="0 0 50 50" fill="none" xmlns="http://www.w3.org/2000/svg">
<g clip-path="url(#clip0_80_49)">
<path d="M35.151 17.3207C34.9341 16.7588 34.6019 16.2486 34.1758 15.823C33.7497 15.3973 33.2391 15.0656 32.677 14.8493C31.9031 14.5626 31.0856 14.4111 30.2604 14.4014C28.888 14.3389 28.4765 14.3232 25 14.3232C21.5234 14.3232 21.1119 14.3389 19.7395 14.4014C18.9134 14.4108 18.095 14.5623 17.3203 14.8493C16.7584 15.0662 16.2482 15.3985 15.8226 15.8246C15.3969 16.2507 15.0653 16.7612 14.8489 17.3233C14.5623 18.0973 14.4108 18.9147 14.401 19.74C14.3385 21.1124 14.3229 21.5239 14.3229 25.0005C14.3229 28.4771 14.3385 28.8886 14.401 30.261C14.4105 31.0872 14.562 31.9056 14.8489 32.6803C15.0659 33.2422 15.3981 33.7524 15.8242 34.1781C16.2503 34.6037 16.7608 34.9354 17.3229 35.1517C18.0968 35.4384 18.9143 35.5899 19.7395 35.5997C21.1119 35.6622 21.5234 35.6778 25 35.6778C28.4765 35.6778 28.888 35.6622 30.2604 35.5997C31.0865 35.5902 31.9049 35.4387 32.6796 35.1517C33.2415 34.9348 33.7517 34.6026 34.1773 34.1765C34.603 33.7504 34.9347 33.2398 35.151 32.6777C35.4377 31.9038 35.5892 31.0863 35.5989 30.261C35.6614 28.8886 35.677 28.4771 35.677 25.0005C35.677 21.5239 35.6614 21.1124 35.5989 19.74C35.5895 18.9138 35.4379 18.0955 35.151 17.3207ZM25 31.6881C23.6773 31.6881 22.3843 31.2959 21.2846 30.5611C20.1848 29.8262 19.3277 28.7818 18.8215 27.5598C18.3154 26.3378 18.1829 24.9931 18.441 23.6958C18.699 22.3986 19.3359 21.2069 20.2712 20.2717C21.2064 19.3364 22.398 18.6994 23.6953 18.4414C24.9925 18.1834 26.3372 18.3158 27.5592 18.822C28.7811 19.3281 29.8256 20.1853 30.5604 21.2851C31.2952 22.3848 31.6875 23.6778 31.6875 25.0005C31.6875 26.7742 30.9829 28.4752 29.7287 29.7294C28.4746 30.9836 26.7736 31.6881 25 31.6881ZM31.9505 19.6124C31.6414 19.6124 31.3394 19.5208 31.0824 19.3491C30.8254 19.1774 30.6252 18.9333 30.5069 18.6478C30.3887 18.3623 30.3577 18.0481 30.418 17.745C30.4783 17.4419 30.6271 17.1635 30.8456 16.945C31.0641 16.7265 31.3426 16.5777 31.6457 16.5174C31.9487 16.4571 32.2629 16.488 32.5484 16.6063C32.8339 16.7245 33.078 16.9248 33.2496 17.1818C33.4213 17.4387 33.513 17.7408 33.513 18.0499C33.513 18.4643 33.3484 18.8617 33.0553 19.1547C32.7623 19.4478 32.3649 19.6124 31.9505 19.6124Z" fill="white"/>
<path d="M25 29.3416C27.3975 29.3416 29.3411 27.398 29.3411 25.0004C29.3411 22.6028 27.3975 20.6592 25 20.6592C22.6024 20.6592 20.6588 22.6028 20.6588 25.0004C20.6588 27.398 22.6024 29.3416 25 29.3416Z" fill="white"/>
<path d="M25 0C20.0555 0 15.222 1.46625 11.1108 4.21333C6.99953 6.96042 3.79521 10.865 1.90302 15.4332C0.0108321 20.0014 -0.484251 25.0282 0.480379 29.8778C1.44501 34.7274 3.82603 39.1821 7.32234 42.6784C10.8187 46.1748 15.2732 48.5559 20.1228 49.5205C24.9723 50.4852 29.9989 49.9901 34.5671 48.0978C39.1353 46.2056 43.0397 43.0013 45.7867 38.8899C48.5338 34.7786 50 29.9451 50 25.0004C50 18.3699 47.3661 12.011 42.6777 7.32246C37.9893 2.63397 31.6304 0 25 0ZM37.9427 30.3703C37.9204 31.45 37.7152 32.5181 37.3359 33.5292C37.0015 34.394 36.4901 35.1794 35.8344 35.8351C35.1788 36.4907 34.3934 37.0022 33.5287 37.3366C32.5175 37.7159 31.4495 37.921 30.3698 37.9434C28.9792 38.0059 28.5365 38.0215 25 38.0215C21.4636 38.0215 21.0208 38.0059 19.6302 37.9434C18.5505 37.921 17.4825 37.7159 16.4714 37.3366C15.6066 37.0022 14.8212 36.4907 14.1656 35.8351C13.5099 35.1794 12.9985 34.394 12.6641 33.5292C12.2848 32.5181 12.0796 31.45 12.0573 30.3703C11.9948 28.9797 11.9792 28.537 11.9792 25.0004C11.9792 21.4639 11.9948 21.0212 12.0573 19.6306C12.0796 18.5509 12.2848 17.4828 12.6641 16.4716C12.9985 15.6068 13.5099 14.8215 14.1656 14.1658C14.8212 13.5102 15.6066 12.9987 16.4714 12.6643C17.4825 12.285 18.5505 12.0798 19.6302 12.0575C21.0208 11.995 21.4636 11.9794 25 11.9794C28.5365 11.9794 28.9792 11.995 30.3698 12.0575C31.4495 12.0798 32.5175 12.285 33.5287 12.6643C34.3934 12.9987 35.1788 13.5102 35.8344 14.1658C36.4901 14.8215 37.0015 15.6068 37.3359 16.4716C37.7152 17.4828 37.9204 18.5509 37.9427 19.6306C38.0052 21.0212 38.0208 21.4639 38.0208 25.0004C38.0208 28.537 38.0052 28.9797 37.9427 30.3703Z" fill="white"/>
</g>
<defs>
<clipPath id="clip0_80_49">
<rect width="50" height="50.0009" fill="white"/>
</clipPath>
</defs>
</svg>
