<svg width="50" height="50" viewBox="0 0 50 50" fill="none" xmlns="http://www.w3.org/2000/svg">
<path d="M25.0035 3.125C12.9398 3.125 3.125 12.9398 3.125 25.0039C3.125 37.0684 12.9398 46.8836 25.0035 46.8836C37.068 46.8836 46.8828 37.0684 46.8828 25.0039C46.8824 12.9398 37.0676 3.125 25.0035 3.125ZM36.648 19.2977C36.0679 20.1664 35.3465 20.9319 34.5137 21.5625C34.5172 21.6895 34.5195 21.8164 34.5195 21.9434C34.5195 28.3238 29.6645 34.9234 21.5395 34.9234C19.06 34.9246 16.6324 34.2136 14.5453 32.875C14.4709 32.8275 14.4148 32.7561 14.3863 32.6726C14.3578 32.5891 14.3585 32.4983 14.3883 32.4152C14.4173 32.3317 14.474 32.2606 14.5491 32.2138C14.6242 32.167 14.713 32.1474 14.8008 32.1582C15.1434 32.1977 15.4828 32.2172 15.8102 32.2172C17.4039 32.2172 18.9227 31.7887 20.2559 30.9699C19.4529 30.7761 18.7134 30.3789 18.1085 29.8164C17.5036 29.254 17.0536 28.5453 16.802 27.7586C16.7813 27.694 16.7779 27.6252 16.7918 27.5588C16.8058 27.4925 16.8367 27.4309 16.8816 27.3801C16.9265 27.3292 16.984 27.291 17.0483 27.2692C17.1126 27.2475 17.1815 27.243 17.248 27.2563C17.3215 27.2703 17.3953 27.2824 17.4688 27.2926C16.1121 26.4281 15.232 24.9082 15.232 23.2254V23.1695C15.2321 23.1016 15.2498 23.0348 15.2836 22.9757C15.3174 22.9167 15.3659 22.8676 15.4245 22.8331C15.4831 22.7986 15.5497 22.78 15.6177 22.7791C15.6856 22.7783 15.7527 22.7952 15.8121 22.8281C15.982 22.9223 16.1582 23.0039 16.3391 23.0727C15.6449 22.2147 15.2667 21.1442 15.268 20.0406C15.268 19.1898 15.4934 18.3523 15.9195 17.6191C15.9512 17.5645 15.9958 17.5183 16.0492 17.4847C16.1027 17.451 16.1635 17.4308 16.2265 17.4258C16.2895 17.4208 16.3528 17.4312 16.4109 17.456C16.469 17.4808 16.5202 17.5194 16.5602 17.5684C18.6379 20.116 21.6582 21.7188 24.907 22.0141C24.884 21.8205 24.8725 21.6258 24.8727 21.4309C24.8727 18.7758 27.0332 16.6156 29.6887 16.6156C30.9414 16.6156 32.1535 17.1098 33.0477 17.9777C33.9215 17.7832 34.7589 17.4511 35.5285 16.9938C35.5477 16.9335 35.5813 16.8788 35.6263 16.8343C35.6713 16.7899 35.7264 16.7571 35.7869 16.7386C35.8475 16.7202 35.9115 16.7167 35.9737 16.7286C36.0358 16.7404 36.0942 16.7671 36.1437 16.8065C36.1932 16.8458 36.2325 16.8966 36.258 16.9544C36.2836 17.0123 36.2947 17.0755 36.2905 17.1386C36.2862 17.2017 36.2667 17.2629 36.2336 17.3168C36.2005 17.3707 36.1548 17.4157 36.1004 17.448C35.9091 18.0478 35.6011 18.6037 35.1941 19.084C35.5252 18.984 35.8496 18.8635 36.1656 18.723C36.243 18.6889 36.3294 18.6807 36.4118 18.6999C36.4942 18.719 36.5682 18.7644 36.6226 18.8292C36.677 18.894 36.7089 18.9747 36.7135 19.0592C36.7181 19.1437 36.6951 19.2273 36.648 19.2977Z" fill="white"/>
</svg>
