<svg width="16" height="16" viewBox="0 0 16 16" fill="none" xmlns="http://www.w3.org/2000/svg">
<mask id="mask0_1_38" style="mask-type:alpha" maskUnits="userSpaceOnUse" x="0" y="0" width="16" height="16">
<rect width="16" height="16" fill="#D9D9D9"/>
</mask>
<g mask="url(#mask0_1_38)">
<path d="M8.00004 14.6666C7.07782 14.6666 6.21115 14.4916 5.40004 14.1416C4.58893 13.7916 3.88337 13.3166 3.28337 12.7166C2.68337 12.1166 2.20837 11.4111 1.85837 10.6C1.50837 9.78887 1.33337 8.9222 1.33337 7.99998C1.33337 7.07776 1.50837 6.21109 1.85837 5.39998C2.20837 4.58887 2.68337 3.88331 3.28337 3.28331C3.88337 2.68331 4.58893 2.20831 5.40004 1.85831C6.21115 1.50831 7.07782 1.33331 8.00004 1.33331C8.92226 1.33331 9.78893 1.50831 10.6 1.85831C11.4112 2.20831 12.1167 2.68331 12.7167 3.28331C13.3167 3.88331 13.7917 4.58887 14.1417 5.39998C14.4917 6.21109 14.6667 7.07776 14.6667 7.99998V8.96665C14.6667 9.6222 14.4417 10.1805 13.9917 10.6416C13.5417 11.1028 12.9889 11.3333 12.3334 11.3333C11.9445 11.3333 11.5778 11.25 11.2334 11.0833C10.8889 10.9166 10.6 10.6778 10.3667 10.3666C10.0445 10.6889 9.6806 10.9305 9.27504 11.0916C8.86948 11.2528 8.44448 11.3333 8.00004 11.3333C7.07782 11.3333 6.29171 11.0083 5.64171 10.3583C4.99171 9.70831 4.66671 8.9222 4.66671 7.99998C4.66671 7.07776 4.99171 6.29165 5.64171 5.64165C6.29171 4.99165 7.07782 4.66665 8.00004 4.66665C8.92226 4.66665 9.70837 4.99165 10.3584 5.64165C11.0084 6.29165 11.3334 7.07776 11.3334 7.99998V8.96665C11.3334 9.25553 11.4278 9.49998 11.6167 9.69998C11.8056 9.89998 12.0445 9.99998 12.3334 9.99998C12.6223 9.99998 12.8612 9.89998 13.05 9.69998C13.2389 9.49998 13.3334 9.25553 13.3334 8.96665V7.99998C13.3334 6.51109 12.8167 5.24998 11.7834 4.21665C10.75 3.18331 9.48893 2.66665 8.00004 2.66665C6.51115 2.66665 5.25004 3.18331 4.21671 4.21665C3.18337 5.24998 2.66671 6.51109 2.66671 7.99998C2.66671 9.48887 3.18337 10.75 4.21671 11.7833C5.25004 12.8166 6.51115 13.3333 8.00004 13.3333H11.3334V14.6666H8.00004ZM8.00004 9.99998C8.5556 9.99998 9.02782 9.80553 9.41671 9.41665C9.8056 9.02776 10 8.55553 10 7.99998C10 7.44442 9.8056 6.9722 9.41671 6.58331C9.02782 6.19442 8.5556 5.99998 8.00004 5.99998C7.44448 5.99998 6.97226 6.19442 6.58337 6.58331C6.19448 6.9722 6.00004 7.44442 6.00004 7.99998C6.00004 8.55553 6.19448 9.02776 6.58337 9.41665C6.97226 9.80553 7.44448 9.99998 8.00004 9.99998Z" fill="#AAAAAA"/>
</g>
</svg>
