<svg width="16" height="16" viewBox="0 0 16 16" fill="none" xmlns="http://www.w3.org/2000/svg">
<mask id="mask0_1_28" style="mask-type:alpha" maskUnits="userSpaceOnUse" x="0" y="0" width="16" height="16">
<rect width="16" height="16" fill="#D9D9D9"/>
</mask>
<g mask="url(#mask0_1_28)">
<path d="M8 11.3333C8.92222 11.3333 9.70834 11.0083 10.3583 10.3583C11.0083 9.70833 11.3333 8.92222 11.3333 7.99999C11.3333 7.07777 11.0083 6.29166 10.3583 5.64166C9.70834 4.99166 8.92222 4.66666 8 4.66666C7.07778 4.66666 6.29167 4.99166 5.64167 5.64166C4.99167 6.29166 4.66667 7.07777 4.66667 7.99999C4.66667 8.92222 4.99167 9.70833 5.64167 10.3583C6.29167 11.0083 7.07778 11.3333 8 11.3333ZM8 14.6667C7.07778 14.6667 6.21111 14.4917 5.4 14.1417C4.58889 13.7917 3.88334 13.3167 3.28334 12.7167C2.68334 12.1167 2.20834 11.4111 1.85834 10.6C1.50834 9.78888 1.33334 8.92222 1.33334 7.99999C1.33334 7.07777 1.50834 6.21111 1.85834 5.39999C2.20834 4.58888 2.68334 3.88333 3.28334 3.28333C3.88334 2.68333 4.58889 2.20833 5.4 1.85833C6.21111 1.50833 7.07778 1.33333 8 1.33333C8.92222 1.33333 9.78889 1.50833 10.6 1.85833C11.4111 2.20833 12.1167 2.68333 12.7167 3.28333C13.3167 3.88333 13.7917 4.58888 14.1417 5.39999C14.4917 6.21111 14.6667 7.07777 14.6667 7.99999C14.6667 8.92222 14.4917 9.78888 14.1417 10.6C13.7917 11.4111 13.3167 12.1167 12.7167 12.7167C12.1167 13.3167 11.4111 13.7917 10.6 14.1417C9.78889 14.4917 8.92222 14.6667 8 14.6667ZM8 13.3333C9.48889 13.3333 10.75 12.8167 11.7833 11.7833C12.8167 10.75 13.3333 9.48888 13.3333 7.99999C13.3333 6.51111 12.8167 5.24999 11.7833 4.21666C10.75 3.18333 9.48889 2.66666 8 2.66666C6.51111 2.66666 5.25 3.18333 4.21667 4.21666C3.18334 5.24999 2.66667 6.51111 2.66667 7.99999C2.66667 9.48888 3.18334 10.75 4.21667 11.7833C5.25 12.8167 6.51111 13.3333 8 13.3333Z" fill="#0050C9"/>
</g>
</svg>
