<svg width="24" height="24" viewBox="0 0 24 24" fill="none" xmlns="http://www.w3.org/2000/svg">
<mask id="mask0_5_90" style="mask-type:alpha" maskUnits="userSpaceOnUse" x="0" y="0" width="24" height="24">
<rect width="24" height="24" fill="#D9D9D9"/>
</mask>
<g mask="url(#mask0_5_90)">
<path d="M12 7.5C11.5167 7.5 11.1042 7.32917 10.7625 6.9875C10.4208 6.64583 10.25 6.23333 10.25 5.75C10.25 5.26667 10.4208 4.85417 10.7625 4.5125C11.1042 4.17083 11.5167 4 12 4C12.4833 4 12.8958 4.17083 13.2375 4.5125C13.5792 4.85417 13.75 5.26667 13.75 5.75C13.75 6.23333 13.5792 6.64583 13.2375 6.9875C12.8958 7.32917 12.4833 7.5 12 7.5ZM10 20V16H8L10.375 9.625C10.5083 9.29167 10.7208 9.02083 11.0125 8.8125C11.3042 8.60417 11.6333 8.5 12 8.5C12.3667 8.5 12.6958 8.60417 12.9875 8.8125C13.2792 9.02083 13.4917 9.29167 13.625 9.625L16 16H14V20H10Z" fill="#1C1B1F"/>
</g>
</svg>
