<svg width="16" height="17" viewBox="0 0 16 17" fill="none" xmlns="http://www.w3.org/2000/svg">
<mask id="mask0_1_62" style="mask-type:alpha" maskUnits="userSpaceOnUse" x="0" y="0" width="16" height="17">
<rect y="0.0112305" width="16" height="16" fill="#D9D9D9"/>
</mask>
<g mask="url(#mask0_1_62)">
<path d="M8 14.6779C7.07778 14.6779 6.21111 14.5029 5.4 14.1529C4.58889 13.8029 3.88334 13.3279 3.28334 12.7279C2.68334 12.1279 2.20834 11.4224 1.85834 10.6112C1.50834 9.80013 1.33334 8.93346 1.33334 8.01124C1.33334 7.08902 1.50834 6.22235 1.85834 5.41124C2.20834 4.60013 2.68334 3.89457 3.28334 3.29457C3.88334 2.69457 4.58889 2.21957 5.4 1.86957C6.21111 1.51957 7.07778 1.34457 8 1.34457C8.92222 1.34457 9.78889 1.51957 10.6 1.86957C11.4111 2.21957 12.1167 2.69457 12.7167 3.29457C13.3167 3.89457 13.7917 4.60013 14.1417 5.41124C14.4917 6.22235 14.6667 7.08902 14.6667 8.01124C14.6667 8.93346 14.4917 9.80013 14.1417 10.6112C13.7917 11.4224 13.3167 12.1279 12.7167 12.7279C12.1167 13.3279 11.4111 13.8029 10.6 14.1529C9.78889 14.5029 8.92222 14.6779 8 14.6779ZM8 13.3446C9.48889 13.3446 10.75 12.8279 11.7833 11.7946C12.8167 10.7612 13.3333 9.50013 13.3333 8.01124C13.3333 6.52235 12.8167 5.26124 11.7833 4.22791C10.75 3.19457 9.48889 2.67791 8 2.67791C6.51111 2.67791 5.25 3.19457 4.21667 4.22791C3.18334 5.26124 2.66667 6.52235 2.66667 8.01124C2.66667 9.50013 3.18334 10.7612 4.21667 11.7946C5.25 12.8279 6.51111 13.3446 8 13.3446Z" fill="#1C1B1F"/>
</g>
</svg>
