<svg width="200" height="61" viewBox="0 0 200 61" fill="none" xmlns="http://www.w3.org/2000/svg">
<path d="M48.5182 26.6701C38.9953 21.0086 23.2876 20.4881 14.1968 23.2502C12.7369 23.6934 11.1932 22.8684 10.7509 21.407C10.3085 19.9449 11.1318 18.4005 12.5926 17.9562C23.0282 14.7847 40.3757 15.3975 51.3386 21.9124C52.652 22.6925 53.0827 24.3902 52.3042 25.7029C51.5252 27.0172 49.828 27.4505 48.5182 26.6701ZM48.2063 35.0558C47.5385 36.1413 46.121 36.4813 45.0384 35.8153C37.0991 30.9297 24.9927 29.5144 15.6 32.3686C14.382 32.7371 13.0955 32.0496 12.7256 30.8324C12.3585 29.613 13.0456 28.3274 14.2614 27.9566C24.9914 24.6971 38.3299 26.2759 47.4485 31.8859C48.5312 32.5533 48.872 33.9732 48.2063 35.0558ZM44.5914 43.1092C44.0608 43.9805 42.927 44.2538 42.0599 43.7227C35.1223 39.478 26.3903 38.5191 16.1069 40.8708C15.1158 41.0983 14.1283 40.4764 13.9022 39.4846C13.6752 38.4926 14.2938 37.5041 15.2871 37.2778C26.5406 34.7022 36.1939 35.8107 43.9807 40.5742C44.8489 41.1049 45.1223 42.2405 44.5914 43.1092ZM31.0429 0.450993C14.7272 0.450993 1.50012 13.692 1.50012 30.0259C1.50012 46.3612 14.7272 59.6019 31.0429 59.6019C47.3593 59.6019 60.5856 46.3612 60.5856 30.0259C60.5856 13.692 47.3593 0.450993 31.0429 0.450993Z" fill="#1ED760"/>
<path d="M81.8757 27.7542C76.7749 26.5364 75.8665 25.6817 75.8665 23.8863C75.8665 22.1893 77.4625 21.0478 79.8352 21.0478C82.1353 21.0478 84.4157 21.9149 86.8072 23.6998C86.8795 23.7538 86.9701 23.7754 87.0594 23.7612C87.1487 23.7478 87.2273 23.6991 87.2799 23.6249L89.7705 20.1102C89.8728 19.9657 89.8449 19.7658 89.707 19.6553C86.8611 17.3692 83.6565 16.2578 79.9107 16.2578C74.4032 16.2578 70.5561 19.5663 70.5561 24.3009C70.5561 29.3778 73.8747 31.1752 79.6094 32.5628C84.4905 33.6884 85.3142 34.6312 85.3142 36.3172C85.3142 38.185 83.6484 39.3463 80.9676 39.3463C77.9906 39.3463 75.5617 38.3423 72.8449 35.9869C72.7776 35.929 72.6851 35.9022 72.5998 35.907C72.5102 35.9145 72.428 35.9561 72.3708 36.025L69.5782 39.3522C69.4611 39.4903 69.4759 39.6966 69.611 39.8159C72.7723 42.641 76.6595 44.1334 80.8548 44.1334C86.7895 44.1334 90.6246 40.8867 90.6246 35.8622C90.6246 31.6158 88.0902 29.2673 81.8757 27.7542Z" fill="#1ED760"/>
<path d="M108.36 33.4455C108.36 37.0312 106.153 39.5333 102.994 39.5333C99.8712 39.5333 97.5154 36.9176 97.5154 33.4455C97.5154 29.9739 99.8712 27.3577 102.994 27.3577C106.103 27.3577 108.36 29.9174 108.36 33.4455ZM104.052 22.718C101.479 22.718 99.3692 23.7323 97.6293 25.8107V23.4713C97.6293 23.2866 97.4798 23.1361 97.2952 23.1361H92.7282C92.5437 23.1361 92.3945 23.2866 92.3945 23.4713V49.4653C92.3945 49.65 92.5437 49.8004 92.7282 49.8004H97.2952C97.4798 49.8004 97.6293 49.65 97.6293 49.4653V41.2605C99.3696 43.2156 101.48 44.1705 104.052 44.1705C108.831 44.1705 113.67 40.4869 113.67 33.4455C113.67 26.4025 108.831 22.718 104.052 22.718Z" fill="#1ED760"/>
<path d="M126.073 39.5709C122.799 39.5709 120.331 36.9373 120.331 33.4455C120.331 29.939 122.714 27.3944 125.998 27.3944C129.293 27.3944 131.778 30.0279 131.778 33.522C131.778 37.0281 129.379 39.5709 126.073 39.5709ZM126.073 22.718C119.917 22.718 115.095 27.4633 115.095 33.522C115.095 39.515 119.884 44.2105 125.998 44.2105C132.175 44.2105 137.012 39.4812 137.012 33.4455C137.012 27.43 132.208 22.718 126.073 22.718Z" fill="#1ED760"/>
<path d="M150.157 23.1361H145.131V17.9919C145.131 17.8072 144.983 17.6571 144.798 17.6571H140.231C140.047 17.6571 139.896 17.8072 139.896 17.9919V23.1361H137.7C137.516 23.1361 137.368 23.2866 137.368 23.4713V27.4009C137.368 27.5855 137.516 27.7358 137.7 27.7358H139.896V37.9042C139.896 42.0134 141.939 44.0967 145.968 44.0967C147.607 44.0967 148.966 43.758 150.247 43.0309C150.351 42.9726 150.416 42.8603 150.416 42.7409V38.9988C150.416 38.8832 150.355 38.7745 150.257 38.7138C150.157 38.6513 150.034 38.6481 149.932 38.6986C149.052 39.1417 148.201 39.3463 147.251 39.3463C145.786 39.3463 145.131 38.6805 145.131 37.1877V27.7358H150.157C150.342 27.7358 150.491 27.5855 150.491 27.4009V23.4713C150.491 23.2866 150.342 23.1361 150.157 23.1361Z" fill="#1ED760"/>
<path d="M167.668 23.1563V22.5244C167.668 20.6657 168.38 19.8368 169.977 19.8368C170.929 19.8368 171.694 20.0261 172.55 20.3122C172.656 20.3454 172.766 20.3288 172.852 20.2656C172.94 20.2023 172.99 20.101 172.99 19.9936V16.1405C172.99 15.9933 172.895 15.863 172.754 15.8199C171.849 15.5504 170.691 15.2735 168.957 15.2735C164.738 15.2735 162.509 17.6518 162.509 22.1487V23.1163H160.315C160.13 23.1163 159.979 23.2664 159.979 23.4512V27.4009C159.979 27.5855 160.13 27.7358 160.315 27.7358H162.509V43.42C162.509 43.6048 162.658 43.7549 162.842 43.7549H167.409C167.593 43.7549 167.744 43.6048 167.744 43.42V27.7358H172.008L178.541 43.4159C177.799 45.0633 177.07 45.3912 176.074 45.3912C175.27 45.3912 174.422 45.1505 173.556 44.676C173.474 44.631 173.378 44.6237 173.29 44.6509C173.203 44.6819 173.129 44.7466 173.092 44.8317L171.544 48.2317C171.471 48.3923 171.533 48.581 171.688 48.6643C173.304 49.5405 174.763 49.9145 176.566 49.9145C179.938 49.9145 181.802 48.3415 183.446 44.1105L191.37 23.6125C191.409 23.5094 191.397 23.3932 191.334 23.3014C191.272 23.211 191.17 23.1563 191.06 23.1563H186.305C186.163 23.1563 186.035 23.2467 185.988 23.3805L181.118 37.3088L175.782 23.3713C175.734 23.2417 175.609 23.1563 175.471 23.1563H167.668Z" fill="#1ED760"/>
<path d="M157.517 23.1361H152.949C152.765 23.1361 152.615 23.2866 152.615 23.4713V43.42C152.615 43.6048 152.765 43.7549 152.949 43.7549H157.517C157.701 43.7549 157.851 43.6048 157.851 43.42V23.4713C157.851 23.2866 157.701 23.1361 157.517 23.1361Z" fill="#1ED760"/>
<path d="M155.256 14.053C153.447 14.053 151.979 15.5197 151.979 17.3307C151.979 19.1432 153.447 20.6113 155.256 20.6113C157.065 20.6113 158.532 19.1432 158.532 17.3307C158.532 15.5197 157.065 14.053 155.256 14.053Z" fill="#1ED760"/>
<path d="M195.456 25.1205H194.619V26.1888H195.456C195.874 26.1888 196.123 25.9842 196.123 25.6544C196.123 25.3068 195.874 25.1205 195.456 25.1205ZM195.998 26.6445L196.908 27.9189H196.141L195.323 26.75H194.619V27.9189H193.977V24.541H195.482C196.265 24.541 196.781 24.9427 196.781 25.6185C196.781 26.1721 196.462 26.5105 195.998 26.6445ZM195.286 23.4172C193.639 23.4172 192.393 24.7271 192.393 26.3318C192.393 27.9355 193.631 29.2281 195.269 29.2281C196.915 29.2281 198.162 27.9189 198.162 26.3135C198.162 24.7098 196.924 23.4172 195.286 23.4172ZM195.269 29.55C193.461 29.55 192.055 28.0966 192.055 26.3318C192.055 24.5668 193.48 23.0969 195.286 23.0969C197.093 23.0969 198.5 24.5502 198.5 26.3135C198.5 28.0786 197.076 29.55 195.269 29.55Z" fill="#1ED760"/>
</svg>
